<?xml version="1.0" encoding="UTF-8"?>
<!DOCTYPE svg PUBLIC "-//W3C//DTD SVG 1.1//EN" "http://www.w3.org/Graphics/SVG/1.1/DTD/svg11.dtd">
<!-- Creator: CorelDRAW -->
<svg xmlns="http://www.w3.org/2000/svg" xml:space="preserve" width="1024px" height="768px" version="1.1" style="shape-rendering:geometricPrecision; text-rendering:geometricPrecision; image-rendering:optimizeQuality; fill-rule:evenodd; clip-rule:evenodd"
viewBox="0 0 1024 768"
 xmlns:xlink="http://www.w3.org/1999/xlink"
 xmlns:xodm="http://www.corel.com/coreldraw/odm/2003">
 <defs>
  <style type="text/css">
   <![CDATA[
    .str0 {stroke:black;stroke-miterlimit:2.61313}
    .fil1 {fill:black}
    .fil0 {fill:red}
   ]]>
  </style>
 </defs>
 <g id="Layer_x0020_1">
  <metadata id="CorelCorpID_0Corel-Layer"/>
  <g id="_2222148071248">
   <g>
    <path class="fil0" d="M367 381c0,35 6,60 26,86 3,4 4,6 7,10 10,11 13,15 26,24l15 10c33,18 74,23 111,12 17,-5 31,-12 45,-22 14,-10 24,-20 34,-34 23,-32 26,-55 26,-94 0,-35 -18,-69 -41,-92 -22,-22 -58,-44 -91,-44 -34,0 -48,-1 -80,15 -17,9 -27,17 -39,30 -10,10 -22,27 -27,41 -4,9 -6,15 -9,26 -2,9 -4,19 -4,31zm146 -98c4,31 5,47 5,47 7,35 39,53 94,55 -7,0 -22,2 -45,6 -33,5 -51,35 -55,91 7,-62 -26,-95 -99,-99 58,-1 90,-21 94,-59 0,0 2,-14 6,-41z"/>
    <path class="fil0" d="M429 385c4,1 17,3 31,7 -9,-3 -19,-5 -31,-7zm68 31c3,6 6,13 8,20 3,10 5,28 8,36l0 0c1,-23 -5,-41 -16,-55zm17 52c2,-11 4,-21 6,-29 -3,9 -5,18 -6,29zm36 -70c5,-2 11,-4 17,-6 -6,1 -12,3 -17,6zm50 -12l1 0c-24,-8 -43,-7 -57,-16 14,9 32,15 56,17zm-60 -19c-9,-8 -17,-21 -22,-45l1 11c3,14 10,26 21,35zm-31 -45c-3,15 -7,26 -12,34 7,-8 10,-18 12,-30l0 -3zm-37 52c-9,3 -21,6 -36,9 14,-2 26,-5 36,-9z"/>
   </g>
   <path class="fil1 str0" d="M513 285c4,31 5,47 5,47 9,33 42,48 94,54 -7,0 -22,3 -45,7 -33,5 -51,35 -55,91 7,-62 -26,-96 -99,-100 55,-4 89,-21 94,-58 0,0 2,-14 6,-41z"/>
  </g>
 </g>
</svg>
