<svg xmlns="http://www.w3.org/2000/svg" width="59" height="32" fill="none" viewBox="0 0 59 32">
  <path fill="#fff" d="M28.46 6c1.061 0 1.933.192 2.61.577a5.746 5.746 0 0 1 1.676 1.402c.347.422.617.898.81 1.428.192.532.334 1.132.426 1.8.092.668.15 1.4.178 2.197.028.797.042 1.662.042 2.596 0 .934-.014 1.8-.042 2.597a21.835 21.835 0 0 1-.178 2.197 8.806 8.806 0 0 1-.426 1.8 4.77 4.77 0 0 1-.81 1.428 5.747 5.747 0 0 1-1.676 1.402c-.677.384-1.548.577-2.61.577-1.062 0-1.932-.193-2.61-.577a5.746 5.746 0 0 1-1.675-1.401 4.789 4.789 0 0 1-.81-1.43 9.36 9.36 0 0 1-.44-1.8c-.1-.667-.16-1.4-.178-2.196A115.58 115.58 0 0 1 22.72 16c0-.934.009-1.799.027-2.596.018-.796.078-1.528.179-2.197.1-.668.247-1.268.44-1.8a4.77 4.77 0 0 1 .809-1.428c.44-.55.998-1.017 1.676-1.402C26.528 6.192 27.399 6 28.46 6Zm-22.939.056c1.685 0 2.968.412 3.847 1.238.532.494.916 1.126 1.155 1.895.237.77.357 1.648.357 2.637H6.979c0-.347-.014-.674-.042-.975a1.501 1.501 0 0 0-.289-.783 1.257 1.257 0 0 0-.425-.357c-.174-.092-.409-.138-.702-.138-.274 0-.503.051-.686.152-.183.1-.33.223-.44.37-.22.293-.329.76-.329 1.401 0 .312.018.573.055.783.037.21.1.39.192.536.092.146.23.28.413.398.182.12.412.232.686.343l2.445.989c.622.256 1.136.527 1.539.81.402.285.728.641.975 1.072v-.002c.247.43.42.948.522 1.552.1.604.15 1.346.15 2.225 0 .99-.081 1.837-.246 2.542a3.583 3.583 0 0 1-1.017 1.799c-.44.421-1.022.77-1.745 1.044-.723.274-1.543.412-2.514.412-.97 0-1.808-.129-2.512-.385-.706-.256-1.278-.604-1.718-1.044-.476-.476-.81-1.067-1.003-1.771C.096 22.094 0 21.237 0 20.229h3.901c0 .404.024.752.07 1.044.045.294.16.541.342.743.11.128.262.239.455.33.192.092.443.137.754.137.568 0 .98-.164 1.237-.494.256-.312.385-.86.385-1.648 0-.458-.023-.839-.069-1.14a1.833 1.833 0 0 0-.262-.742 1.554 1.554 0 0 0-.521-.48 7.694 7.694 0 0 0-.852-.413L2.968 16.55c-.495-.2-.92-.43-1.278-.687a3.11 3.11 0 0 1-.866-.933c-.22-.366-.384-.815-.494-1.347-.11-.53-.165-1.18-.165-1.95 0-.916.146-1.74.44-2.473a4.83 4.83 0 0 1 1.318-1.868 5.13 5.13 0 0 1 1.593-.92c.586-.21 1.254-.316 2.005-.316ZM22.06 9.737h-3.297v16.044h-3.9V9.737h-3.298V6.221H22.06v3.516Zm19.553-3.516c1.063 0 1.947.137 2.652.412.704.274 1.263.664 1.675 1.168.413.504.702 1.127.867 1.868.165.741.247 1.58.247 2.513 0 .531-.028 1.04-.082 1.525a6.274 6.274 0 0 1-.317 1.387 4.3 4.3 0 0 1-.673 1.222v.001c-.294.376-.679.71-1.155 1.003l2.858 8.461h-4.066l-2.39-7.61h-1.291v7.61h-3.9V6.221h5.575Zm16.638 3.516h-5.11v4.34h4.396v3.518h-4.395v4.67h5.109v3.516h-9.01V6.221h9.01v3.516ZM28.46 9.52c-.366 0-.65.073-.852.22a1.5 1.5 0 0 0-.466.55c-.11.219-.202.53-.275.933-.074.403-.128.86-.165 1.373-.037.513-.06 1.062-.068 1.648a103.017 103.017 0 0 0 0 3.516c.009.586.03 1.136.068 1.648.037.513.091.971.165 1.374.073.403.164.714.275.934.109.22.265.403.466.55.202.146.486.22.852.22.367 0 .651-.074.852-.22a1.51 1.51 0 0 0 .467-.55c.11-.22.202-.53.275-.934.073-.402.127-.86.165-1.374.036-.512.059-1.062.068-1.648a113.195 113.195 0 0 0 0-3.516 30.733 30.733 0 0 0-.068-1.648 13.28 13.28 0 0 0-.165-1.373c-.073-.402-.165-.714-.275-.934a1.5 1.5 0 0 0-.466-.55c-.202-.146-.486-.22-.853-.22Zm11.477 5.135h1.649c.366 0 .656-.077.866-.233a1.41 1.41 0 0 0 .467-.59c.1-.239.165-.504.192-.798a9.125 9.125 0 0 0 0-1.702 2.685 2.685 0 0 0-.192-.797 1.31 1.31 0 0 0-.467-.577c-.211-.146-.5-.22-.866-.22h-1.648v4.917Z"/>
</svg>
